<mxfile host="app.diagrams.net" modified="2022-04-01T20:24:09.329Z" agent="5.0 (Windows NT 10.0; Win64; x64) AppleWebKit/537.36 (KHTML, like Gecko) Chrome/99.0.4844.74 Safari/537.36 Edg/99.0.1150.55" etag="6c-PzBCXvMyHv26TQ41y" version="17.4.0" type="github">
  <diagram id="Zy_1oPk_rdFRKfEBM1oO" name="Page-1">
    <mxGraphModel dx="1021" dy="541" grid="1" gridSize="10" guides="1" tooltips="1" connect="1" arrows="1" fold="1" page="1" pageScale="1" pageWidth="850" pageHeight="1100" math="0" shadow="0">
      <root>
        <mxCell id="0" />
        <mxCell id="1" parent="0" />
        <mxCell id="1MLiI41voiOrj1XIoDfM-19" style="edgeStyle=orthogonalEdgeStyle;rounded=0;orthogonalLoop=1;jettySize=auto;html=1;exitX=1;exitY=0.5;exitDx=0;exitDy=0;entryX=0.16;entryY=0.55;entryDx=0;entryDy=0;entryPerimeter=0;" edge="1" parent="1" source="1MLiI41voiOrj1XIoDfM-2" target="1MLiI41voiOrj1XIoDfM-8">
          <mxGeometry relative="1" as="geometry" />
        </mxCell>
        <mxCell id="1MLiI41voiOrj1XIoDfM-2" value="ESP32" style="rounded=0;whiteSpace=wrap;html=1;" vertex="1" parent="1">
          <mxGeometry x="200" y="450" width="120" height="60" as="geometry" />
        </mxCell>
        <mxCell id="1MLiI41voiOrj1XIoDfM-18" style="edgeStyle=orthogonalEdgeStyle;rounded=0;orthogonalLoop=1;jettySize=auto;html=1;exitX=1;exitY=1;exitDx=0;exitDy=0;entryX=0;entryY=0.25;entryDx=0;entryDy=0;" edge="1" parent="1" source="1MLiI41voiOrj1XIoDfM-4" target="1MLiI41voiOrj1XIoDfM-2">
          <mxGeometry relative="1" as="geometry" />
        </mxCell>
        <mxCell id="1MLiI41voiOrj1XIoDfM-4" value="Cảm biến nhiệt độ độ ẩm." style="rounded=0;whiteSpace=wrap;html=1;" vertex="1" parent="1">
          <mxGeometry x="40" y="380" width="120" height="60" as="geometry" />
        </mxCell>
        <mxCell id="1MLiI41voiOrj1XIoDfM-17" style="edgeStyle=orthogonalEdgeStyle;rounded=0;orthogonalLoop=1;jettySize=auto;html=1;exitX=1;exitY=0;exitDx=0;exitDy=0;entryX=0;entryY=0.75;entryDx=0;entryDy=0;" edge="1" parent="1" source="1MLiI41voiOrj1XIoDfM-6" target="1MLiI41voiOrj1XIoDfM-2">
          <mxGeometry relative="1" as="geometry" />
        </mxCell>
        <mxCell id="1MLiI41voiOrj1XIoDfM-6" value="Thiết bị" style="rounded=0;whiteSpace=wrap;html=1;" vertex="1" parent="1">
          <mxGeometry x="40" y="520" width="120" height="60" as="geometry" />
        </mxCell>
        <mxCell id="1MLiI41voiOrj1XIoDfM-21" style="edgeStyle=orthogonalEdgeStyle;rounded=0;orthogonalLoop=1;jettySize=auto;html=1;exitX=0.875;exitY=0.5;exitDx=0;exitDy=0;exitPerimeter=0;entryX=0;entryY=0.5;entryDx=0;entryDy=0;" edge="1" parent="1" source="1MLiI41voiOrj1XIoDfM-8" target="1MLiI41voiOrj1XIoDfM-11">
          <mxGeometry relative="1" as="geometry" />
        </mxCell>
        <mxCell id="1MLiI41voiOrj1XIoDfM-8" value="&#xa;&#xa;&lt;span style=&quot;color: rgb(0, 0, 0); font-family: helvetica; font-size: 12px; font-style: normal; font-weight: 400; letter-spacing: normal; text-align: center; text-indent: 0px; text-transform: none; word-spacing: 0px; background-color: rgb(248, 249, 250); display: inline; float: none;&quot;&gt;Web Server&lt;/span&gt;&#xa;&#xa;" style="ellipse;shape=cloud;whiteSpace=wrap;html=1;" vertex="1" parent="1">
          <mxGeometry x="365" y="440" width="120" height="80" as="geometry" />
        </mxCell>
        <mxCell id="1MLiI41voiOrj1XIoDfM-10" value="DATABASE" style="shape=cylinder3;whiteSpace=wrap;html=1;boundedLbl=1;backgroundOutline=1;size=15;" vertex="1" parent="1">
          <mxGeometry x="760" y="440" width="80" height="80" as="geometry" />
        </mxCell>
        <mxCell id="1MLiI41voiOrj1XIoDfM-22" style="edgeStyle=orthogonalEdgeStyle;rounded=0;orthogonalLoop=1;jettySize=auto;html=1;exitX=1;exitY=0.5;exitDx=0;exitDy=0;" edge="1" parent="1" source="1MLiI41voiOrj1XIoDfM-11" target="1MLiI41voiOrj1XIoDfM-10">
          <mxGeometry relative="1" as="geometry" />
        </mxCell>
        <mxCell id="1MLiI41voiOrj1XIoDfM-11" value="Lịch sử đóng tắt&lt;br&gt;Nhiệt độ độ ẩm từng giờ" style="shape=step;perimeter=stepPerimeter;whiteSpace=wrap;html=1;fixedSize=1;rotation=0;align=center;" vertex="1" parent="1">
          <mxGeometry x="520" y="425" width="185" height="110" as="geometry" />
        </mxCell>
      </root>
    </mxGraphModel>
  </diagram>
</mxfile>
